<?xml version="1.0" standalone="no"?>
<!DOCTYPE svg PUBLIC "-//W3C//DTD SVG 20010904//EN"
 "http://www.w3.org/TR/2001/REC-SVG-20010904/DTD/svg10.dtd">
<svg version="1.0" xmlns="http://www.w3.org/2000/svg"
 width="1555.000000pt" height="1555.000000pt" viewBox="0 0 1555.000000 1555.000000"
 preserveAspectRatio="xMidYMid meet">
<metadata>
Created by potrace 1.14, written by Peter Selinger 2001-2017
</metadata>
<g transform="translate(0.000000,1555.000000) scale(0.100000,-0.100000)"
fill="#000000" stroke="none">
<path d="M5125 13680 c-4 -6 -10 -8 -15 -5 -5 3 -12 1 -15 -5 -4 -7 -12 -7
-18 -2 -18 13 -72 -2 -62 -18 3 -4 -2 -13 -10 -20 -13 -11 -15 -157 -15 -1166
0 -763 3 -1154 10 -1154 7 0 10 -497 10 -1471 l0 -1472 -26 26 c-16 16 -42 28
-67 32 -23 3 -250 5 -504 3 l-463 -3 -24 -25 c-21 -21 -88 -158 -226 -465 -39
-87 -92 -200 -95 -203 -9 -10 -65 59 -67 81 -2 18 -11 30 -28 37 -15 6 -37 32
-54 67 -17 31 -49 75 -73 99 -24 24 -43 53 -43 63 0 11 -18 41 -40 66 -22 25
-40 53 -40 61 0 8 -4 13 -8 10 -14 -8 -26 7 -66 84 -43 82 -51 91 -83 109 -13
6 -27 28 -33 51 -7 24 -31 61 -63 96 -29 31 -58 69 -65 86 -7 16 -22 39 -33
51 -11 12 -22 32 -25 44 -4 13 -10 23 -14 23 -4 0 -10 9 -13 21 -4 16 -10 19
-29 14 -13 -4 -25 -10 -28 -12 -3 -3 -7 -100 -10 -216 -5 -203 -6 -212 -25
-212 -19 0 -20 9 -16 1145 3 1103 2 1146 -16 1161 -22 20 -63 34 -63 22 0 -5
-16 -15 -35 -22 -19 -7 -36 -17 -36 -22 -5 -32 -5 -55 0 -63 8 -16 7 -57 -1
-62 -5 -3 -4 -13 2 -23 5 -10 7 -21 4 -24 -10 -10 -11 -42 -2 -59 5 -12 5 -26
-2 -39 -8 -15 -8 -24 0 -34 8 -9 8 -15 0 -20 -6 -4 -7 -12 -3 -18 10 -15 10
-38 -1 -55 -4 -7 -3 -19 4 -27 7 -9 8 -15 0 -20 -7 -4 -7 -12 0 -26 8 -13 7
-25 0 -40 -8 -15 -8 -24 0 -34 8 -9 8 -15 0 -20 -6 -4 -7 -12 -3 -18 10 -15
10 -38 -1 -55 -4 -7 -3 -19 4 -27 7 -9 8 -15 0 -20 -7 -4 -7 -12 0 -26 8 -13
7 -25 0 -40 -8 -15 -8 -24 0 -34 8 -9 8 -15 0 -20 -6 -4 -7 -12 -3 -18 10 -15
10 -38 -1 -55 -4 -7 -3 -19 4 -27 7 -9 8 -15 0 -20 -7 -4 -7 -12 0 -26 8 -13
7 -25 0 -40 -8 -15 -8 -24 0 -34 8 -9 8 -15 0 -20 -6 -4 -7 -12 -3 -18 10 -15
10 -38 -1 -55 -4 -7 -3 -19 4 -27 7 -9 8 -15 0 -20 -7 -4 -7 -12 0 -26 8 -13
7 -25 0 -40 -8 -15 -8 -24 0 -34 8 -9 8 -15 0 -20 -6 -4 -7 -12 -3 -18 10 -15
10 -38 -1 -55 -4 -7 -3 -19 4 -27 7 -9 8 -15 0 -20 -7 -4 -7 -12 0 -26 8 -13
7 -25 0 -40 -8 -15 -8 -24 0 -34 8 -9 8 -15 0 -20 -6 -4 -7 -12 -3 -18 10 -15
10 -38 -1 -55 -4 -7 -3 -19 4 -27 7 -9 8 -15 0 -20 -8 -5 0 -34 14 -51 1 0 -5
-8 -12 -17 -8 -9 -10 -22 -6 -29 11 -17 11 -37 1 -67 -5 -17 -4 -27 5 -33 9
-5 5 -8 -11 -8 -24 0 -24 0 -5 -16 19 -15 19 -16 -1 -10 -20 6 -20 6 -1 -9 14
-11 16 -15 5 -15 -10 -1 -9 -5 5 -15 11 -8 14 -15 7 -15 -7 0 -9 -5 -5 -11 10
-17 11 -118 1 -112 -5 3 -5 -3 1 -13 6 -11 7 -27 1 -41 -5 -14 -5 -23 1 -23 6
0 6 -9 1 -22 -11 -30 -11 -39 1 -61 14 -26 2 -64 -22 -70 -27 -7 -38 17 -34
75 12 196 6 347 -14 349 -4 0 -15 2 -24 4 -22 4 -33 -10 -46 -58 -6 -21 -22
-47 -36 -58 -14 -11 -26 -27 -26 -36 0 -23 -31 -83 -40 -78 -5 3 -18 -7 -29
-22 -11 -16 -25 -33 -30 -39 -5 -6 -21 -34 -35 -61 -14 -28 -34 -53 -44 -55
-11 -3 -22 -18 -26 -33 -4 -16 -23 -46 -42 -68 -19 -23 -34 -48 -34 -56 0 -9
-15 -30 -33 -47 -47 -45 -67 -71 -86 -118 -10 -22 -30 -47 -44 -55 -14 -7 -28
-24 -31 -37 -3 -12 -12 -29 -19 -36 -6 -7 -23 -33 -36 -58 -14 -24 -36 -55
-49 -67 -14 -13 -22 -23 -18 -23 3 0 -9 -15 -29 -34 -19 -19 -36 -39 -36 -45
-1 -6 -3 -15 -4 -21 -1 -5 -3 -14 -4 -19 0 -5 -24 -33 -52 -62 -28 -29 -58
-71 -66 -91 -9 -21 -32 -52 -52 -70 -20 -17 -29 -27 -22 -22 18 10 -18 -43
-48 -70 -21 -19 -21 -25 -21 -397 0 -228 -4 -380 -10 -384 -5 -3 -130 -6 -277
-6 -147 0 -278 -3 -290 -6 l-23 -5 0 -1447 c0 -1188 -2 -1450 -13 -1465 -11
-16 -22 -17 -63 -11 -46 6 -92 7 -116 2 -22 -4 -58 -45 -58 -66 0 -11 -5 -21
-11 -21 -6 0 -7 -5 -2 -12 4 -7 8 -115 8 -240 0 -124 3 -230 7 -233 11 -11 -3
-38 -35 -65 l-30 -26 1 -939 0 -940 -31 -65 c-18 -39 -31 -82 -31 -108 -1 -37
4 -47 36 -77 l37 -35 2115 0 2116 0 0 433 0 434 105 0 105 0 0 -434 0 -433
2508 0 2509 0 -1 170 c0 93 2 172 5 175 3 3 40 -12 83 -32 l77 -38 -5 -55 c-3
-30 -8 -70 -12 -88 -6 -32 -9 -33 -48 -32 -67 3 -66 4 -66 -50 l0 -50 444 0
c363 0 451 -3 485 -15 22 -8 41 -12 41 -10 0 2 15 -1 33 -6 17 -5 102 -23 187
-39 201 -38 204 -38 275 -46 33 -3 71 -8 85 -10 161 -25 741 -25 900 0 14 2
48 7 75 10 133 17 266 42 434 82 l143 34 804 0 804 0 0 433 0 434 59 51 c43
38 60 61 65 86 8 44 -1 67 -65 151 -46 61 -54 78 -60 130 -4 33 -10 72 -13 87
-4 18 -2 28 5 28 8 0 7 6 -2 17 -8 10 -9 14 -2 10 9 -6 12 4 10 33 -1 22 -6
40 -12 40 -5 0 -3 5 5 10 13 9 13 10 0 10 -12 0 -12 2 -2 9 17 11 17 21 0 32
-7 5 -8 9 -2 9 12 0 12 29 -1 49 -5 10 -4 12 3 7 7 -4 12 -3 12 3 0 5 -5 13
-10 16 -8 5 -7 11 1 21 9 11 8 14 -2 14 -9 0 -10 3 -4 8 6 4 10 14 10 22 0 8
-4 18 -10 22 -7 5 -6 8 0 8 6 0 11 9 12 20 1 13 -2 18 -10 13 -7 -4 -6 0 2 10
11 14 11 17 0 17 -9 0 -10 3 -4 8 12 9 13 32 1 51 -6 10 -5 12 2 7 7 -4 12 -3
12 3 0 5 -5 13 -10 16 -8 5 -7 11 1 21 9 11 8 14 -2 14 -12 0 -12 2 -1 9 8 4
14 12 14 16 0 4 -6 12 -14 16 -7 5 -8 9 -2 9 12 0 12 29 -1 49 -5 10 -4 12 3
7 7 -4 12 -3 12 3 0 5 -5 13 -10 16 -8 5 -7 11 1 21 9 11 8 14 -2 14 -9 0 -10
3 -4 8 6 4 10 14 10 22 0 8 -4 18 -10 22 -7 5 -6 8 0 8 6 0 11 9 12 20 1 13
-2 18 -10 13 -7 -4 -6 0 2 10 11 14 11 17 0 17 -9 0 -10 3 -4 8 12 9 13 32 1
51 -6 10 -5 12 2 7 7 -4 12 -3 12 3 0 5 -5 13 -10 16 -8 5 -7 11 1 21 9 11 8
14 -2 14 -9 0 -10 3 -4 8 6 4 10 14 10 22 0 8 -4 18 -10 22 -7 5 -6 8 0 8 6 0
11 9 12 20 1 13 -2 18 -10 13 -7 -4 -6 0 2 10 11 14 11 17 0 17 -9 0 -10 3 -4
8 12 9 13 32 1 51 -6 10 -5 12 2 7 7 -4 12 -3 12 3 0 5 -5 13 -10 16 -8 5 -7
11 1 21 9 11 8 14 -2 14 -12 0 -12 2 -1 9 8 4 14 12 14 16 0 4 -6 12 -14 16
-7 5 -8 9 -2 9 12 0 12 29 -1 49 -5 10 -4 12 3 7 7 -4 12 -3 12 3 0 5 -5 13
-10 16 -8 5 -7 11 1 21 9 11 8 14 -2 14 -9 0 -10 3 -4 8 6 4 10 14 10 22 0 8
-4 18 -10 22 -7 5 -6 8 0 8 6 0 11 9 12 20 1 13 -2 18 -10 13 -7 -4 -6 0 2 10
11 14 11 17 0 17 -9 0 -10 3 -4 8 12 9 13 32 1 51 -6 10 -5 12 2 7 7 -4 12 -3
12 3 0 5 -5 13 -10 16 -8 5 -7 11 1 21 9 11 8 14 -2 14 -9 0 -10 3 -4 8 6 4
10 14 10 22 0 8 -4 18 -10 22 -7 5 -6 8 0 8 6 0 11 9 12 20 1 13 -2 18 -10 13
-7 -4 -6 0 2 10 11 14 11 17 0 17 -9 0 -10 3 -4 8 12 9 13 32 1 51 -6 10 -5
12 2 7 7 -4 12 -3 12 3 0 5 -5 13 -10 16 -8 5 -7 11 1 21 9 11 8 14 -2 14 -12
0 -12 2 -1 9 8 4 14 12 14 16 0 4 -6 12 -14 16 -7 5 -8 9 -2 9 12 0 12 29 -1
49 -5 10 -4 12 3 7 7 -4 12 -3 12 3 0 5 -5 13 -10 16 -8 5 -7 11 1 21 9 11 8
14 -2 14 -9 0 -10 3 -4 8 6 4 10 14 10 22 0 8 -4 18 -10 22 -7 5 -6 8 0 8 6 0
11 9 12 20 1 13 -2 18 -10 13 -7 -4 -6 0 2 10 11 14 11 17 0 17 -9 0 -10 3 -4
8 12 9 13 32 1 51 -6 10 -5 12 2 7 7 -4 12 -3 12 3 0 5 -5 13 -10 16 -8 5 -7
11 1 21 9 11 8 14 -2 14 -9 0 -10 3 -4 8 6 4 10 14 10 22 0 8 -4 18 -10 22 -7
5 -6 8 0 8 6 0 11 9 12 20 1 13 -2 18 -10 13 -7 -4 -6 0 2 10 11 14 11 17 0
17 -9 0 -10 3 -4 8 12 9 13 32 1 51 -6 10 -5 12 2 7 7 -4 12 -3 12 3 0 5 -5
13 -10 16 -8 5 -7 11 1 21 9 11 8 14 -2 14 -12 0 -12 2 -1 9 8 4 14 12 14 16
0 4 -6 12 -14 16 -7 5 -8 9 -2 9 12 0 12 29 -1 49 -5 10 -4 12 3 7 7 -4 12 -3
12 3 0 5 -5 13 -10 16 -8 5 -7 11 1 21 9 11 8 14 -2 14 -9 0 -10 3 -4 8 6 4
10 14 10 22 0 8 -4 18 -10 22 -7 5 -6 8 0 8 6 0 11 9 12 20 1 13 -2 18 -10 13
-7 -4 -6 0 2 10 11 14 11 17 0 17 -9 0 -10 3 -4 8 12 9 13 32 1 51 -6 10 -5
12 2 7 7 -4 12 -3 12 3 0 5 -5 13 -10 16 -8 5 -7 11 1 21 9 11 8 14 -2 14 -9
0 -10 3 -4 8 6 4 10 14 10 22 0 8 -4 18 -10 22 -7 5 -6 8 0 8 6 0 11 9 12 20
1 13 -2 18 -10 13 -7 -4 -6 0 2 10 11 14 11 17 0 17 -9 0 -10 3 -4 8 12 9 13
32 1 51 -6 10 -5 12 2 7 7 -4 12 -3 12 3 0 5 -5 13 -10 16 -8 5 -7 11 1 21 9
11 8 14 -2 14 -9 0 -10 3 -4 8 6 4 10 14 10 22 0 8 -4 18 -10 22 -7 5 -6 8 0
8 6 0 11 9 12 20 1 13 -2 18 -10 13 -7 -4 -6 0 2 10 11 14 11 17 0 17 -9 0
-10 3 -4 8 12 9 13 32 1 51 -6 10 -5 12 2 7 7 -4 12 -3 12 3 0 5 -5 13 -10 16
-8 5 -7 11 1 21 9 11 8 14 -2 14 -9 0 -10 3 -4 8 6 4 10 14 10 22 0 8 -4 18
-10 22 -7 5 -6 8 0 8 6 0 11 9 12 20 1 13 -2 18 -10 13 -7 -4 -6 0 2 10 11 14
11 17 0 17 -9 0 -10 3 -4 8 12 9 13 32 1 51 -6 10 -5 12 2 7 7 -4 12 -3 12 3
0 5 -5 13 -10 16 -8 5 -7 11 1 21 9 11 8 14 -2 14 -9 0 -10 3 -4 8 6 4 10 14
10 22 0 8 -4 18 -10 22 -7 5 -6 8 0 8 6 0 11 9 12 20 1 13 -2 18 -10 13 -7 -4
-6 0 2 10 11 14 11 17 0 17 -9 0 -10 3 -4 8 12 9 13 32 1 51 -6 10 -5 12 2 7
7 -4 12 -3 12 3 0 5 -5 13 -10 16 -8 5 -7 11 1 21 9 11 8 14 -2 14 -9 0 -10 3
-4 8 6 4 10 14 10 22 0 8 -4 18 -10 22 -7 5 -6 8 0 8 6 0 11 9 12 20 1 13 -2
18 -10 13 -7 -4 -6 0 2 10 11 14 11 17 0 17 -9 0 -10 3 -4 8 12 9 13 32 1 51
-6 10 -5 12 2 7 7 -4 12 -3 12 3 0 5 -5 13 -10 16 -8 5 -7 11 1 21 9 11 8 14
-2 14 -9 0 -10 3 -4 8 6 4 10 14 10 22 0 8 -4 18 -10 22 -7 5 -6 8 0 8 6 0 11
9 12 20 1 13 -2 18 -10 13 -7 -4 -6 0 2 10 11 14 11 17 0 17 -9 0 -10 3 -4 8
12 9 13 32 1 51 -6 10 -5 12 2 7 7 -4 12 -3 12 3 0 5 -5 13 -10 16 -8 5 -7 11
1 21 9 11 8 14 -2 14 -9 0 -10 3 -4 8 6 4 10 14 10 22 0 8 -4 18 -10 22 -7 5
-6 8 0 8 6 0 11 9 12 20 1 12 -3 18 -9 14 -5 -4 -4 4 3 17 15 28 15 29 -3 40
-10 7 -10 9 0 9 10 0 10 5 1 21 -6 12 -7 19 -1 15 5 -3 10 5 10 19 0 14 -5 22
-11 18 -6 -4 -7 -1 -1 8 12 20 12 63 -1 71 -6 5 -5 8 3 8 10 0 10 5 1 21 -6
12 -7 19 -1 15 5 -3 10 5 10 19 -1 14 -5 22 -11 18 -6 -4 -7 -1 -1 8 12 20 12
63 -1 71 -6 5 -5 8 3 8 10 0 10 5 1 21 -6 12 -7 19 -1 15 5 -3 10 5 10 19 0
14 -5 22 -11 18 -6 -4 -7 -1 -1 8 4 8 9 20 10 27 3 17 43 75 88 127 39 45 54
101 36 136 -7 12 -39 47 -71 77 -34 32 -58 61 -55 69 3 7 0 13 -7 13 -7 0 -8
3 -2 8 16 11 19 46 3 36 -10 -6 -10 -4 1 9 11 14 11 17 0 17 -9 0 -10 3 -4 8
12 9 13 32 1 51 -6 10 -5 12 2 7 7 -4 12 -3 12 3 0 5 -5 13 -10 16 -8 5 -7 11
1 21 9 11 8 14 -2 14 -9 0 -10 3 -4 8 6 4 10 14 10 22 0 8 -4 18 -10 22 -7 5
-6 8 0 8 6 0 11 9 12 20 1 13 -2 18 -10 13 -7 -4 -6 0 2 10 11 14 11 17 0 17
-9 0 -10 3 -4 8 12 9 13 32 1 51 -6 10 -5 12 2 7 7 -4 12 -3 12 3 0 5 -5 13
-10 16 -8 5 -7 11 1 21 9 11 8 14 -2 14 -9 0 -10 3 -4 8 6 4 10 14 10 22 0 8
-4 18 -10 22 -7 5 -6 8 0 8 6 0 11 9 12 20 1 13 -2 18 -10 13 -7 -4 -6 0 2 10
11 14 11 17 0 17 -9 0 -10 3 -4 8 12 9 13 32 1 51 -6 10 -5 12 2 7 7 -4 12 -3
12 3 0 5 -5 13 -10 16 -8 5 -7 11 1 21 9 11 8 14 -2 14 -9 0 -10 3 -4 8 6 4
10 14 10 22 0 8 -4 18 -10 22 -7 5 -6 8 0 8 6 0 11 9 12 20 1 13 -2 18 -10 13
-7 -4 -6 0 2 10 11 14 11 17 0 17 -9 0 -10 3 -4 8 12 9 13 32 1 51 -6 10 -5
12 2 7 7 -4 12 -3 12 3 0 5 -5 13 -10 16 -8 5 -7 11 1 21 9 11 8 14 -2 14 -9
0 -10 3 -4 8 6 4 10 14 10 22 0 8 -4 18 -10 22 -7 5 -6 8 0 8 6 0 11 9 12 20
1 12 -3 18 -9 14 -7 -4 -7 -1 0 12 15 28 15 36 0 45 -10 7 -10 9 0 9 10 0 10
5 1 21 -6 12 -7 19 -1 15 5 -3 10 5 10 19 -1 14 -5 22 -11 18 -6 -4 -7 -1 -1
8 12 20 12 63 -1 71 -6 5 -5 8 3 8 10 0 10 5 1 21 -6 12 -7 19 -1 15 5 -3 10
5 10 19 -1 14 -5 22 -11 18 -6 -4 -7 -1 -1 8 12 20 12 63 -1 71 -6 5 -5 8 3 8
10 0 10 5 1 21 -6 12 -7 19 -1 15 5 -3 10 5 10 19 0 14 -5 22 -11 18 -6 -4 -7
-1 -1 8 12 20 12 63 -1 71 -6 5 -5 8 3 8 10 0 10 5 1 21 -7 13 -7 19 -1 15 6
-4 10 2 9 14 -1 11 -6 20 -12 20 -6 0 -7 3 0 8 15 11 17 64 2 55 -7 -4 -6 0 2
10 11 14 11 20 1 32 -10 12 -10 19 -2 27 16 16 15 48 0 48 -9 0 -9 3 -3 8 15
10 16 55 2 64 -7 5 -8 8 -1 8 12 0 12 28 1 47 -4 6 -3 14 3 18 5 3 10 11 10
16 0 6 -6 7 -12 3 -9 -5 -9 -2 1 9 11 14 11 17 0 17 -9 0 -10 3 -4 8 12 9 13
32 1 51 -6 10 -5 12 2 7 7 -4 12 -3 12 3 0 5 -5 13 -10 16 -8 5 -7 11 1 21 9
11 8 14 -2 14 -9 0 -10 3 -4 8 6 4 10 14 10 22 0 8 -4 18 -10 22 -7 5 -6 8 0
8 6 0 11 9 12 20 1 13 -2 18 -10 13 -7 -4 -6 0 2 10 11 14 11 17 0 17 -9 0
-10 3 -4 8 12 9 13 32 1 51 -6 10 -5 12 2 7 7 -4 12 -3 12 3 0 5 -5 13 -10 16
-8 5 -7 11 1 21 9 11 8 14 -2 14 -9 0 -10 3 -4 8 6 4 10 14 10 22 0 8 -4 18
-10 22 -7 5 -6 8 0 8 6 0 11 9 12 20 1 13 -2 18 -10 13 -7 -4 -6 0 2 10 11 14
11 17 0 17 -9 0 -10 3 -4 8 12 9 13 32 1 51 -6 10 -5 12 2 7 7 -4 12 -3 12 3
0 5 -5 13 -10 16 -8 5 -7 11 1 21 9 11 8 14 -2 14 -9 0 -10 3 -4 8 6 4 10 14
10 22 0 8 -4 18 -10 22 -7 5 -6 8 0 8 6 0 11 9 12 20 1 13 -2 18 -10 13 -7 -4
-6 0 2 10 11 14 11 17 0 17 -9 0 -10 3 -4 8 12 9 13 32 1 51 -6 10 -5 12 2 7
7 -4 12 -3 12 3 0 5 -5 13 -10 16 -8 5 -7 11 1 21 9 11 8 14 -2 14 -9 0 -10 3
-4 8 6 4 10 14 10 22 0 8 -4 18 -10 22 -7 5 -6 8 0 8 6 0 11 9 12 20 1 12 -3
18 -9 14 -7 -4 -7 0 1 13 7 14 7 23 -2 33 -9 10 -9 14 1 17 10 4 10 8 0 21
-10 12 -10 14 0 8 15 -9 15 -1 1 26 -8 15 -8 19 0 14 6 -4 11 -2 11 3 0 6 -6
11 -12 11 -8 0 -9 3 -3 8 15 10 17 72 3 72 -6 0 -8 3 -5 6 3 4 2 14 -3 23 -5
9 -11 42 -14 72 -5 54 -46 146 -59 132 -4 -3 -7 -1 -7 6 0 6 -6 11 -12 9 -23
-4 -57 13 -62 30 -5 18 -13 57 -22 106 -2 15 -15 49 -28 75 -13 25 -23 58 -22
74 1 15 -1 27 -4 27 -3 0 -6 9 -7 20 -1 11 -11 33 -22 48 -10 15 -22 46 -26
67 -10 54 -41 104 -64 102 -23 -1 -47 -40 -54 -87 -10 -59 -12 -66 -29 -92 -9
-14 -20 -58 -24 -99 -4 -41 -11 -85 -17 -99 -12 -28 -14 -36 -16 -51 0 -5 -6
-7 -13 -3 -6 4 -8 3 -4 -4 3 -6 -3 -20 -15 -31 -12 -11 -18 -24 -14 -30 3 -6
3 -11 -2 -11 -10 0 -78 -60 -69 -60 4 0 -2 -13 -13 -29 -11 -15 -17 -32 -13
-36 4 -5 1 -5 -5 -1 -7 4 -13 2 -13 -4 0 -6 -4 -8 -10 -5 -10 6 -12 1 -14 -27
0 -7 -6 -30 -13 -50 -8 -25 -12 -109 -12 -248 0 -207 -1 -211 -24 -243 -14
-17 -28 -54 -32 -81 -5 -34 -15 -56 -36 -77 -27 -26 -39 -46 -21 -35 9 6 9
-140 0 -150 -5 -4 -8 -12 -8 -18 0 -6 4 -5 9 2 6 10 10 7 13 -12 3 -14 2 -23
-2 -21 -10 6 -21 -21 -12 -29 11 -12 10 -36 -1 -37 -7 0 -3 -4 8 -9 11 -5 14
-9 6 -9 -11 -1 -11 -4 0 -18 10 -11 10 -14 2 -9 -7 4 -13 3 -13 -1 0 -5 6 -15
13 -22 10 -11 10 -13 0 -7 -7 4 -13 2 -13 -3 0 -6 5 -11 10 -11 6 0 10 -5 10
-11 0 -5 -4 -7 -10 -4 -5 3 -7 0 -5 -7 10 -26 11 -88 2 -88 -5 0 -3 -8 4 -17
8 -9 9 -14 3 -10 -6 3 -11 0 -11 -8 0 -8 4 -12 9 -9 4 3 11 -2 15 -11 3 -10 0
-21 -8 -26 -10 -6 -10 -9 -1 -9 6 0 12 -5 12 -11 0 -6 -7 -8 -16 -5 -8 3 -12
2 -9 -4 3 -6 1 -10 -5 -10 -6 0 -9 -4 -6 -9 5 -8 -17 -6 -53 5 -11 3 -11 7 -1
19 7 9 8 15 2 15 -5 0 -10 30 -11 69 -1 72 -11 113 -35 136 -10 11 -16 11 -26
2 -10 -9 -11 -9 -6 1 4 6 2 12 -3 12 -6 0 -11 -5 -11 -10 0 -6 -12 -22 -26
-35 -35 -33 -49 -62 -52 -110 -8 -119 -41 -188 -71 -151 -7 8 -21 12 -31 9
-13 -3 -20 0 -20 8 -1 11 -4 10 -13 -2 -10 -14 -52 -17 -64 -5 -10 10 -16 64
-19 181 -4 149 -5 155 -15 155 -4 0 -10 7 -13 16 -5 12 -3 14 7 8 7 -5 1 2
-14 16 -15 14 -33 42 -40 62 -13 37 -36 52 -60 38 -7 -5 -14 -14 -15 -22 -11
-55 -49 -174 -58 -180 -7 -5 -7 -8 -1 -8 6 0 10 -40 9 -103 -1 -104 -18 -166
-47 -168 -6 0 -23 -2 -35 -3 -13 -2 -31 4 -39 12 -10 10 -17 12 -21 5 -7 -11
-33 -17 -60 -14 -18 2 -32 46 -38 120 -2 36 -10 68 -17 73 -8 5 -9 8 0 8 15 0
-43 59 -82 84 -17 10 -27 15 -23 11 4 -4 -2 -15 -14 -25 -12 -9 -23 -23 -24
-31 -2 -8 -5 -25 -9 -39 -14 -62 -17 -87 -16 -107 0 -13 -3 -23 -9 -23 -5 0
-7 -9 -5 -19 2 -11 -3 -22 -11 -25 -9 -3 -12 -11 -8 -18 5 -8 2 -9 -9 -5 -10
3 -17 3 -17 -1 0 -15 -95 -8 -104 8 -6 8 -11 125 -13 260 -1 135 -4 280 -7
322 -4 75 -5 78 -45 116 -22 21 -38 42 -34 45 4 4 -3 16 -14 27 -12 10 -23 16
-26 14 -8 -8 -16 41 -22 129 -3 43 -10 88 -15 101 -5 13 -6 27 -3 30 4 3 -1 6
-11 6 -9 0 -15 4 -11 9 3 5 -8 9 -25 9 -22 -1 -29 -5 -26 -15 4 -10 1 -11 -12
-5 -12 7 -23 4 -37 -11 -11 -11 -13 -16 -5 -12 12 7 13 6 2 -7 -6 -8 -14 -39
-17 -69 -12 -137 -15 -155 -21 -176 -3 -13 -10 -20 -15 -17 -5 3 -9 -2 -9 -10
0 -9 -4 -16 -10 -16 -5 0 -10 -5 -10 -10 0 -6 -18 -27 -39 -48 l-40 -38 -1
-242 c-1 -317 -6 -381 -31 -407 -13 -13 -19 -15 -19 -6 0 11 -3 11 -15 1 -8
-7 -15 -8 -15 -3 0 5 -12 10 -26 11 -34 3 -46 11 -40 27 3 8 -1 18 -8 24 -6 5
-13 25 -14 43 -3 37 -6 56 -15 78 -3 8 -13 36 -23 63 -9 26 -23 47 -30 47 -8
0 -14 4 -14 8 0 5 -7 9 -15 9 -8 0 -15 -6 -15 -13 0 -7 -6 -17 -13 -21 -8 -4
-21 -26 -29 -48 -9 -22 -20 -39 -25 -38 -5 1 -9 -6 -10 -15 -2 -16 -9 -73 -15
-119 -2 -12 -11 -28 -22 -36 -19 -14 -66 -11 -66 4 0 5 -5 9 -11 9 -5 0 -7 -6
-3 -12 5 -8 0 -7 -11 2 -14 11 -17 12 -11 1 6 -9 5 -12 -5 -9 -8 3 -21 -1 -30
-8 -13 -12 -18 -11 -35 9 -26 32 -27 36 -28 172 -1 117 -21 214 -47 230 -5 4
-9 15 -9 26 0 10 -9 28 -20 39 -28 28 -57 12 -67 -38 -4 -20 -6 -40 -5 -44 1
-5 -2 -8 -8 -8 -6 0 -9 -3 -9 -7 3 -20 -2 -34 -10 -28 -6 3 -8 -4 -6 -16 3
-15 0 -19 -10 -15 -11 4 -12 0 -5 -20 6 -15 6 -23 1 -19 -5 3 -12 1 -16 -5 -3
-5 -2 -10 3 -10 6 0 13 -7 16 -16 3 -8 2 -12 -4 -9 -14 9 -12 -9 2 -23 9 -9 9
-12 0 -12 -6 0 -9 -7 -6 -15 4 -8 1 -22 -5 -29 -9 -11 -9 -16 0 -22 8 -5 10
-3 4 7 -5 8 -4 11 1 6 11 -10 13 -98 2 -91 -4 3 -8 0 -8 -6 0 -6 -4 -9 -9 -5
-6 3 -8 -4 -6 -15 3 -13 -2 -23 -13 -27 -9 -4 -20 -11 -24 -17 -5 -7 -8 -7 -8
2 0 6 -9 12 -20 12 -11 0 -20 5 -20 10 0 7 -6 7 -20 0 -11 -6 -20 -8 -20 -4 0
3 -6 2 -13 -4 -18 -15 -56 -4 -55 16 0 10 -3 51 -6 92 -7 85 -23 143 -37 135
-5 -4 -9 -2 -9 3 0 4 -16 14 -35 22 -19 7 -32 17 -29 22 4 5 -3 4 -14 -3 -34
-21 -41 -48 -44 -160 -2 -80 -7 -109 -19 -121 -15 -15 -17 -13 -32 21 -16 37
-18 95 -4 118 4 6 4 14 -1 17 -9 5 -7 64 2 73 3 4 1 12 -5 20 -6 7 -7 13 -2
13 12 0 11 53 -2 62 -6 5 -6 8 1 8 9 0 12 89 4 110 -1 3 -1 10 0 15 8 33 6 75
-4 75 -7 0 -7 3 -1 8 6 4 10 33 10 64 0 31 -2 55 -4 53 -2 -2 -16 8 -32 23
-19 18 -29 40 -32 67 -3 22 -15 58 -28 80 -25 42 -33 85 -15 85 7 0 7 3 1 8
-6 4 -10 75 -11 172 -1 137 -7 225 -14 225 -1 0 -3 9 -5 20 -9 49 -13 58 -44
85 -23 18 -31 32 -26 41 5 8 5 11 0 7 -11 -10 -85 66 -85 86 0 9 -5 16 -10 16
-7 0 -7 7 0 20 8 16 8 20 -2 18 -8 -2 -12 5 -10 20 2 13 -2 22 -10 22 -15 0
-38 73 -44 143 -3 22 -11 54 -20 71 -9 17 -18 45 -21 61 -6 37 -20 65 -44 88
-42 40 -67 12 -74 -84 -4 -50 -10 -66 -32 -86 -17 -17 -27 -37 -29 -62 -2 -20
-4 -37 -5 -38 -1 -2 -2 -6 -3 -10 -1 -5 -6 -23 -10 -40 -4 -18 -11 -33 -16
-33 -4 0 -7 -8 -6 -17 2 -10 -1 -20 -5 -23 -5 -3 -10 -15 -12 -25 -1 -11 -5
-24 -8 -30 -4 -5 -12 -26 -18 -46 -9 -27 -19 -38 -39 -43 -16 -3 -40 -23 -59
-48 -25 -34 -32 -56 -37 -108 -3 -36 -6 -644 -6 -1353 l-1 -1287 -80 -40 -80
-41 0 103 c0 2746 -7 5507 -13 5521 -5 9 -12 17 -18 17 -5 0 -6 4 -3 10 4 6
-1 7 -11 3 -12 -5 -15 -3 -9 6 6 10 3 11 -12 2 -11 -6 -24 -7 -28 -3 -11 11
-59 9 -67 -2 -5 -7 -8 -7 -8 2 0 9 -5 10 -19 3 -10 -6 -21 -7 -25 -4 -10 11
-46 11 -46 0 0 -5 -8 -3 -17 4 -15 12 -16 12 -8 -1 8 -13 6 -13 -8 -2 -9 8
-22 10 -29 6 -17 -11 -41 -11 -49 0 -4 4 -17 3 -29 -4 -15 -8 -20 -8 -16 -1 4
6 3 11 -3 11 -5 0 -13 -5 -16 -10 -5 -8 -11 -8 -20 0 -10 8 -15 8 -20 0 -5 -8
-11 -8 -19 -1 -9 7 -16 7 -23 0 -8 -8 -13 -8 -17 0 -4 6 -12 11 -17 11 -6 0
-7 -5 -3 -12 4 -7 3 -8 -5 -4 -19 12 -61 14 -61 4 0 -5 -5 -6 -10 -3 -6 4 -8
12 -4 18 3 7 -2 3 -10 -7 -9 -11 -16 -14 -16 -7 0 7 -5 9 -12 5 -17 -11 -58
-11 -65 -1 -2 4 -11 3 -18 -3 -10 -8 -15 -8 -20 0 -5 8 -10 8 -20 0 -10 -8
-15 -8 -20 0 -5 8 -10 8 -20 0 -9 -8 -15 -8 -20 0 -3 5 -11 10 -16 10 -6 0 -7
-5 -3 -12 4 -7 3 -8 -5 -4 -19 12 -61 14 -61 4 0 -5 -5 -6 -10 -3 -6 4 -8 12
-4 18 3 7 -2 3 -10 -7 -9 -11 -16 -14 -16 -7 0 7 -5 9 -12 5 -16 -10 -50 -10
-66 0 -7 4 -20 2 -29 -6 -12 -9 -15 -9 -9 0 4 6 3 12 -3 12 -5 0 -12 -4 -15
-8 -6 -9 -48 -8 -64 2 -7 4 -18 4 -24 -1 -17 -10 -42 -10 -49 1 -4 4 -17 3
-29 -4 -15 -8 -20 -8 -16 -1 4 6 3 11 -3 11 -5 0 -13 -5 -16 -10 -4 -6 -12 -7
-18 -3 -18 11 -47 11 -47 0 0 -5 -8 -3 -17 4 -15 12 -16 12 -8 -1 8 -13 6 -13
-8 -2 -9 8 -22 10 -29 6 -17 -11 -41 -11 -49 0 -4 4 -17 3 -29 -4 -15 -8 -20
-8 -16 -1 4 6 3 11 -3 11 -5 0 -13 -5 -16 -10 -4 -6 -12 -7 -18 -3 -19 11 -47
11 -47 -1 0 -6 -5 -4 -10 4 -8 12 -10 12 -10 1 0 -11 -3 -11 -15 -1 -11 10
-18 10 -29 1 -11 -9 -15 -9 -18 1 -4 10 -9 10 -23 -2 -11 -9 -16 -10 -11 -2 4
6 3 12 -3 12 -5 0 -12 -4 -15 -8 -6 -9 -48 -8 -64 2 -7 4 -18 4 -24 -1 -17
-10 -42 -10 -49 1 -4 4 -17 3 -29 -4 -15 -8 -20 -8 -16 -1 4 6 3 11 -3 11 -5
0 -13 -5 -16 -10 -4 -6 -12 -7 -18 -3 -18 11 -47 11 -47 0 0 -5 -8 -3 -17 4
-15 12 -16 12 -8 -1 8 -13 6 -13 -8 -2 -9 8 -22 10 -29 6 -17 -11 -41 -11 -49
0 -4 4 -17 3 -29 -4 -15 -8 -20 -8 -16 -1 4 6 3 11 -3 11 -5 0 -13 -5 -16 -10
-4 -6 -12 -7 -18 -3 -19 11 -47 11 -47 -1 0 -6 -5 -4 -10 4 -8 12 -10 12 -10
1 0 -11 -3 -11 -15 -1 -12 10 -18 10 -30 0 -12 -10 -15 -10 -15 0 0 10 -3 10
-14 1 -10 -9 -16 -9 -21 -1 -5 8 -11 8 -19 1 -9 -7 -16 -7 -24 1 -8 8 -16 8
-28 -3 -12 -9 -15 -10 -10 -1 4 6 3 12 -3 12 -5 0 -12 -4 -15 -8 -6 -9 -48 -8
-64 2 -7 4 -18 4 -24 -1 -17 -10 -42 -10 -49 1 -4 4 -17 3 -29 -4 -15 -8 -20
-8 -16 -1 4 6 3 11 -3 11 -5 0 -13 -5 -16 -10 -4 -6 -12 -7 -18 -3 -19 11 -47
11 -47 -1 0 -6 -5 -4 -10 4 -8 12 -10 12 -10 1 0 -11 -3 -11 -15 -1 -12 10
-18 10 -30 0 -12 -10 -15 -10 -15 0 0 10 -3 10 -14 1 -10 -9 -16 -9 -21 -1 -5
8 -11 8 -19 1 -9 -7 -16 -7 -24 1 -8 8 -16 8 -28 -3 -12 -9 -15 -10 -10 -1 4
6 3 12 -3 12 -5 0 -12 -4 -15 -8 -6 -9 -48 -8 -64 2 -7 4 -18 4 -24 -1 -17
-10 -42 -10 -49 1 -4 4 -17 3 -29 -4 -15 -8 -20 -8 -16 -1 4 6 3 11 -3 11 -5
0 -13 -5 -16 -10 -4 -6 -12 -7 -18 -3 -19 11 -47 11 -47 -1 0 -6 -5 -4 -10 4
-8 12 -10 12 -10 1 0 -11 -3 -11 -15 -1 -12 10 -18 10 -30 0 -12 -10 -15 -10
-15 0 0 10 -3 10 -14 1 -10 -9 -16 -9 -21 -1 -5 8 -11 8 -19 1 -9 -7 -16 -7
-24 1 -8 8 -16 8 -28 -3 -12 -9 -15 -10 -10 -1 4 6 3 12 -3 12 -5 0 -12 -4
-15 -8 -6 -9 -48 -8 -64 2 -7 4 -18 4 -24 -1 -17 -10 -42 -10 -49 1 -4 4 -17
3 -29 -4 -15 -8 -20 -8 -16 -1 4 6 3 11 -3 11 -5 0 -13 -5 -16 -10 -5 -8 -11
-8 -20 0 -10 8 -15 8 -20 0 -5 -8 -11 -8 -21 1 -11 9 -18 8 -31 -2 -11 -10
-14 -10 -9 -1 4 6 3 12 -3 12 -5 0 -12 -4 -15 -8 -6 -9 -48 -8 -64 2 -7 4 -18
4 -24 -1 -17 -10 -42 -10 -49 1 -4 4 -17 3 -29 -4 -15 -8 -20 -8 -16 -1 4 6 3
11 -3 11 -5 0 -13 -5 -16 -10 -4 -6 -12 -7 -18 -3 -19 11 -47 11 -47 -1 0 -6
-5 -4 -10 4 -8 12 -10 12 -10 1 0 -11 -3 -11 -15 -1 -12 10 -18 10 -30 0 -12
-10 -15 -10 -15 0 0 10 -3 10 -14 1 -10 -9 -16 -9 -21 -1 -5 8 -11 8 -19 1 -9
-7 -16 -7 -24 1 -8 8 -16 8 -28 -3 -12 -9 -15 -10 -10 -1 4 6 3 12 -3 12 -5 0
-12 -4 -15 -8 -6 -9 -48 -8 -64 2 -7 4 -18 4 -24 -1 -17 -10 -42 -10 -49 1 -4
4 -17 3 -29 -4 -15 -8 -20 -8 -16 -1 4 6 3 11 -3 11 -5 0 -13 -5 -16 -10 -4
-6 -12 -7 -18 -3 -19 11 -47 11 -47 -1 0 -6 -5 -4 -10 4 -8 12 -10 12 -10 1 0
-11 -3 -11 -15 -1 -12 10 -18 10 -30 0 -12 -10 -15 -10 -15 0 0 10 -3 10 -14
1 -10 -9 -16 -9 -21 -1 -5 8 -11 8 -19 1 -9 -7 -16 -7 -24 1 -8 8 -16 8 -28
-3 -12 -9 -15 -10 -10 -1 4 6 3 12 -3 12 -5 0 -12 -4 -15 -8 -6 -9 -48 -8 -64
2 -7 4 -18 4 -24 -1 -17 -10 -42 -10 -49 1 -4 4 -17 3 -29 -4 -20 -11 -22 -10
-17 4 7 18 2 22 -8 6z m-2336 -5940 c1 -453 -4 -533 -32 -485 -15 26 -19 924
-4 943 7 8 13 9 22 2 9 -8 13 -117 14 -460z m-196 439 c10 -12 15 -28 12 -39
-12 -39 -13 -60 -3 -60 7 0 7 -5 1 -12 -5 -7 -8 -24 -6 -38 6 -38 6 -53 0 -76
-3 -11 -2 -26 3 -33 4 -7 4 -28 0 -47 -4 -18 -4 -34 1 -36 4 -2 4 -20 0 -41
-5 -20 -5 -39 -1 -42 4 -3 4 -21 0 -40 -4 -19 -4 -37 0 -40 4 -2 4 -22 0 -44
-4 -22 -4 -45 0 -52 4 -6 4 -24 0 -39 -4 -15 -4 -33 0 -41 5 -7 4 -21 -1 -30
-6 -12 -5 -20 1 -24 6 -4 7 -12 3 -18 -9 -15 -9 -49 1 -65 4 -7 0 -33 -10 -57
-16 -43 -17 -45 -31 -25 -12 17 -14 95 -14 460 0 242 2 444 6 450 9 15 19 12
38 -11z m7596 -3616 c-1 -495 -5 -516 -44 -233 -14 106 -17 354 -4 449 16 114
40 241 45 241 2 0 4 -206 3 -457z m-5675 -29 c3 -8 2 -12 -4 -9 -6 3 -10 10
-10 16 0 14 7 11 14 -7z m26 -64 c11 -23 18 -46 14 -52 -4 -7 -3 -8 4 -4 11 7
16 -12 15 -51 -1 -7 3 -11 6 -8 10 6 39 -57 34 -73 -3 -6 -9 -10 -14 -7 -5 4
-6 -2 -2 -11 5 -13 3 -15 -8 -9 -11 6 -12 5 -2 -5 10 -11 9 -16 -3 -25 -13 -9
-11 -11 12 -10 15 0 28 6 30 13 1 7 0 8 -3 2 -9 -19 -22 -10 -18 12 5 25 25
49 25 30 0 -7 14 -41 30 -75 17 -35 30 -69 30 -75 0 -6 9 -27 20 -47 11 -20
20 -42 20 -50 0 -8 5 -15 10 -15 6 0 10 -7 10 -15 0 -8 4 -23 10 -33 5 -9 64
-143 130 -296 99 -229 120 -287 120 -327 l0 -49 -138 0 -138 0 0 138 c0 142
-13 205 -41 195 -7 -3 -13 -1 -13 4 0 5 -16 10 -37 11 -20 2 -40 5 -44 8 -4 2
-10 0 -13 -5 -4 -5 -21 -7 -39 -4 -32 5 -50 20 -41 35 3 4 0 8 -7 8 -9 0 -9 4
1 15 6 8 9 19 6 24 -4 5 0 16 7 23 12 10 12 15 -1 27 -9 9 -11 16 -4 19 6 2 7
14 3 30 -9 36 -3 74 12 66 7 -3 3 2 -7 10 -15 12 -16 16 -5 17 10 0 10 2 2 6
-18 7 -16 23 2 23 8 0 15 4 15 10 0 5 -8 7 -17 3 -14 -5 -12 0 6 20 14 15 21
30 18 34 -4 3 -7 1 -7 -6 0 -7 -4 -9 -10 -6 -5 3 -10 13 -10 21 0 10 5 12 13
8 7 -5 6 0 -3 11 -9 11 -10 16 -2 11 6 -4 12 -2 12 3 0 6 -5 11 -11 11 -8 0
-7 6 2 17 12 15 12 16 -1 8 -13 -8 -13 -7 -1 8 12 16 8 22 -12 18 -5 -1 -6 3
-2 9 3 6 12 7 18 3 7 -4 6 0 -2 10 -8 10 -9 17 -3 17 6 0 16 -8 21 -17 6 -10
11 -13 11 -6 0 6 -8 18 -18 25 -18 13 -26 68 -9 68 4 0 5 5 2 10 -4 6 -11 7
-17 4 -7 -4 -8 -2 -4 5 4 6 12 9 17 6 5 -4 9 -1 9 4 0 6 -6 11 -12 11 -9 0 -8
4 2 10 10 6 11 10 3 10 -7 0 -13 5 -13 11 0 5 6 7 13 3 7 -5 6 0 -3 11 -9 11
-10 16 -2 11 6 -4 12 -2 12 3 0 6 -4 11 -10 11 -15 0 -7 24 10 32 13 6 13 7
-1 7 -14 1 -16 13 -16 71 1 39 2 70 4 70 1 0 12 -18 23 -40z m-23 -486 c-3 -3
-12 -4 -19 -1 -8 3 -5 6 6 6 11 1 17 -2 13 -5z"/>
<path d="M4529 4458 c-5 -18 -6 -38 -1 -34 7 8 12 36 6 36 -2 0 -4 -1 -5 -2z"/>
<path d="M4525 4399 c-4 -6 -5 -12 -2 -15 2 -3 7 2 10 11 7 17 1 20 -8 4z"/>
<path d="M4576 4293 c-6 -14 -5 -15 5 -6 7 7 10 15 7 18 -3 3 -9 -2 -12 -12z"/>
<path d="M4549 4233 c-13 -16 -12 -17 4 -4 9 7 17 15 17 17 0 8 -8 3 -21 -13z"/>
<path d="M4526 4202 c-2 -4 -1 -14 4 -22 7 -11 9 -9 7 8 -1 24 -3 26 -11 14z"/>
<path d="M4592 4186 c7 -6 18 -17 24 -24 8 -10 11 -10 11 3 0 8 -5 15 -11 15
-6 0 -5 4 3 9 9 6 5 9 -13 9 -20 0 -24 -3 -14 -12z"/>
<path d="M4580 4171 c0 -4 9 -18 20 -31 l20 -23 -20 -22 c-11 -12 -20 -25 -20
-31 0 -5 4 -2 10 6 5 8 13 11 17 6 4 -4 -3 -16 -16 -27 -13 -10 -18 -19 -12
-19 7 0 9 -5 6 -11 -5 -7 -14 -4 -28 8 l-22 18 19 -22 c15 -18 22 -20 32 -12
8 6 11 16 7 22 -4 6 0 8 10 4 12 -4 14 -2 10 10 -4 9 -2 14 3 10 5 -3 10 3 10
13 0 10 -4 16 -8 14 -10 -6 -11 10 -1 20 14 13 9 31 -14 53 -13 12 -23 19 -23
14z"/>
<path d="M4582 4114 c-7 -8 -8 -14 -3 -14 10 0 25 19 20 25 -2 1 -10 -3 -17
-11z"/>
<path d="M4595 3998 l-20 -21 21 11 c12 6 24 8 28 4 4 -3 4 1 0 11 -3 9 -7 17
-8 16 0 0 -10 -10 -21 -21z"/>
<path d="M4614 3965 c3 -8 1 -15 -3 -15 -5 0 -12 6 -14 13 -4 9 -6 9 -6 0 -1
-7 7 -17 17 -22 15 -8 18 -6 18 15 0 13 -4 24 -9 24 -5 0 -7 -7 -3 -15z"/>
<path d="M4570 3929 c0 -5 5 -7 10 -4 6 3 10 8 10 11 0 2 -4 4 -10 4 -5 0 -10
-5 -10 -11z"/>
<path d="M4586 3915 c-11 -8 -15 -15 -9 -15 7 0 15 5 18 10 5 8 12 7 23 -2 15
-12 16 -11 3 5 -7 9 -14 17 -15 17 0 0 -10 -7 -20 -15z"/>
<path d="M4595 3890 c-3 -5 -3 -10 2 -10 4 0 1 -5 -7 -10 -11 -7 -11 -10 -2
-10 8 0 10 -5 6 -12 -4 -8 -3 -10 2 -5 5 5 7 10 4 12 -3 2 4 11 15 20 19 14
19 15 1 8 -13 -4 -17 -3 -12 5 4 7 5 12 2 12 -3 0 -8 -4 -11 -10z"/>
<path d="M4610 3810 c0 -5 5 -10 11 -10 5 0 7 5 4 10 -3 6 -8 10 -11 10 -2 0
-4 -4 -4 -10z"/>
</g>
</svg>
